<svg width="512" height="512" viewBox="0 0 512 512" fill="none" xmlns="http://www.w3.org/2000/svg">
  <!-- Background gradient -->
  <rect width="512" height="512" rx="115" fill="url(#gradient)"/>
  
  <!-- Moon icon -->
  <path d="M256 128C192.537 128 140 180.537 140 244C140 307.463 192.537 360 256 360C287.314 360 315.805 348.183 337.063 328.937C320.842 334.983 303.171 338.5 284.5 338.5C213.936 338.5 157 281.564 157 211C157 174.5 171.5 141.5 194.5 117.5C221.5 120 243.5 122.5 256 128Z" fill="white"/>
  
  <!-- Star 1 -->
  <circle cx="330" cy="180" r="8" fill="white" opacity="0.8"/>
  
  <!-- Star 2 -->
  <circle cx="360" cy="220" r="6" fill="white" opacity="0.8"/>
  
  <!-- Star 3 -->
  <circle cx="340" cy="250" r="5" fill="white" opacity="0.8"/>
  
  <!-- Baby bottle silhouette -->
  <path d="M200 280L205 350C205 355 210 360 215 360H235C240 360 245 355 245 350L250 280H200Z" fill="white" opacity="0.9"/>
  <rect x="210" y="270" width="30" height="15" rx="3" fill="white" opacity="0.9"/>
  <rect x="220" y="265" width="10" height="10" rx="2" fill="white" opacity="0.9"/>
  
  <defs>
    <linearGradient id="gradient" x1="0" y1="0" x2="512" y2="512" gradientUnits="userSpaceOnUse">
      <stop stop-color="#8B5CF6"/>
      <stop offset="1" stop-color="#6366F1"/>
    </linearGradient>
  </defs>
</svg>
